<?xml version="1.0" encoding="UTF-8" standalone="no"?>
<!-- Created with Inkscape (http://www.inkscape.org/) -->

<svg
   xmlns:dc="http://purl.org/dc/elements/1.1/"
   xmlns:cc="http://creativecommons.org/ns#"
   xmlns:rdf="http://www.w3.org/1999/02/22-rdf-syntax-ns#"
   xmlns:svg="http://www.w3.org/2000/svg"
   xmlns="http://www.w3.org/2000/svg"
   xmlns:sodipodi="http://sodipodi.sourceforge.net/DTD/sodipodi-0.dtd"
   xmlns:inkscape="http://www.inkscape.org/namespaces/inkscape"
   version="1.1"
   width="800"
   height="600"
   id="svg2"
   xml:space="preserve"
   inkscape:version="0.48.4 r9939"
   sodipodi:docname="rosedu_vertical_vector.svg"><title
     id="title3005">ROSEdu Logo</title><sodipodi:namedview
     pagecolor="#ffffff"
     bordercolor="#666666"
     borderopacity="1"
     objecttolerance="10"
     gridtolerance="10"
     guidetolerance="10"
     inkscape:pageopacity="0"
     inkscape:pageshadow="2"
     inkscape:window-width="1366"
     inkscape:window-height="684"
     id="namedview3003"
     showgrid="false"
     inkscape:zoom="0.82833333"
     inkscape:cx="213.48089"
     inkscape:cy="300"
     inkscape:window-x="-8"
     inkscape:window-y="-8"
     inkscape:window-maximized="1"
     inkscape:current-layer="svg2" /><metadata
     id="metadata8"><rdf:RDF><cc:Work
         rdf:about=""><dc:format>image/svg+xml</dc:format><dc:type
           rdf:resource="http://purl.org/dc/dcmitype/StillImage" /><dc:title>ROSEdu Logo</dc:title><dc:rights><cc:Agent><dc:title></dc:title></cc:Agent></dc:rights></cc:Work></rdf:RDF></metadata><defs
     id="defs6"><clipPath
       id="clipPath16"><path
         d="M 0,480 640,480 640,0 0,0 0,480 z"
         inkscape:connector-curvature="0"
         id="path18" /></clipPath></defs><g
     transform="matrix(1.25,0,0,-1.25,0,600)"
     id="g10"><g
       id="g12"><g
         clip-path="url(#clipPath16)"
         id="g14"><path
   d="m 404.064,379.613 c 6.271,-12.607 0.623,-36.25 24.835,-32.246 -22.515,-11.738 2.13,-27.074 2.443,-44.944 0.205,-11.717 -5.145,-16.568 -14.501,-24.474 0.793,5.618 7.139,7.583 7.85,14.299 1.236,11.646 -14.689,24.253 -11.014,39.016 1.37,5.505 5.407,7.22 9.894,13.178 -22.651,1.124 -27.434,18.792 -29.801,38.697 -12.001,-9.568 -22.711,-33.815 -46.667,-20.109 16.922,-35.338 -36.791,-32.108 -23.315,-63.77 -7.529,11.002 -8.352,22.561 -0.841,32.366 9.092,11.867 33.629,12.803 20.111,34.689 17.88,-11.234 27.606,6.399 35.048,16.383 -18.634,-15.531 -53.414,-8.65 -62.127,11.778 -4.278,-16.286 -5.494,-22.162 -13.66,-29.723 -15.932,-14.751 -47.298,-2.363 -59.085,-17.544 -4.737,-6.101 -2.877,-13.423 -7.09,-21.63 -2.387,20.338 4.177,34.138 17.265,42.1 21.419,13.028 63.925,-4.14 59.726,34.208 8.558,-4.921 9.449,-17.862 27.519,-16.705 14.127,0.904 22.645,10.997 33.888,13.298 14.984,3.068 32.658,1.415 43.462,-8.973 7.56,-7.27 12.829,-27.479 28.04,-30.284 8.435,-1.555 16.2,3.995 24.194,5.328 -19.947,-31.962 14.854,-36.769 29.241,-53.277 12.584,-14.44 10.822,-34.828 0.08,-52.153 -1.757,7.657 6.302,18.528 0.12,30.242 -10.84,20.536 -45.964,17.258 -39.495,57.844 0.593,3.728 1.972,5.555 3.564,11.335 -24.507,-13.285 -51.578,1.725 -59.684,21.071"
   inkscape:connector-curvature="0"
   id="path20"
   style="fill:#ff4000;fill-opacity:1;fill-rule:evenodd;stroke:none" /><path
   d="m 203.298,366.478 c 1.217,0.122 1.844,-0.302 2.043,-1.122 7.221,-0.694 4.281,-9.773 4.726,-12.698 2.809,-18.429 10.543,-35.106 27.599,-41.74 29.487,-11.47 62.083,-0.045 85.962,-15.824 19.584,-12.941 28.89,-32.902 32.966,-64.893 19.279,21.835 41.378,43.755 76.59,38.774 33.888,-4.793 64.292,-43.227 99.42,-18.428 5.334,3.764 8.326,8.207 11.978,13.099 2.535,3.394 5.492,11.21 11.857,9.974 2.6,-6.159 -3.775,-11.742 -6.89,-16.423 -13.751,-20.67 -38.551,-41.676 -73.425,-37.853 -38.411,4.21 -72.004,46.827 -105.791,15.544 -3.024,-2.8 -6.471,-7.551 -8.772,-11.136 -1.68,-2.618 -1.819,-10.383 -7.651,-9.093 -7.093,2.987 -3.339,16.977 -4.365,22.071 -2.085,10.337 -12.759,27.458 -23.834,31.165 -17.399,5.823 -34.855,3.39 -50.913,5.088 -45.227,4.785 -74.072,36.961 -71.62,90.371 0.04,1.041 0.08,2.083 0.12,3.124"
   inkscape:connector-curvature="0"
   id="path22"
   style="fill:#16a82b;fill-opacity:1;fill-rule:evenodd;stroke:none" /><path
   d="m 96.119,108.921 -20.876,0 c 0,2.798 0.137,12.639 0.41,29.523 0.273,16.884 0.409,30.853 0.409,41.904 0,3.343 -0.171,6.379 -0.511,9.107 -0.342,2.73 -0.768,4.946 -1.28,6.652 -0.512,1.705 -1.126,3.206 -1.842,4.502 -0.716,1.296 -1.398,2.252 -2.047,2.866 -0.648,0.614 -1.33,1.108 -2.046,1.483 -0.716,0.376 -1.245,0.598 -1.586,0.665 -0.341,0.069 -0.682,0.104 -1.023,0.104 l 0,3.785 c 5.594,3.48 11.836,5.219 18.726,5.219 3.889,0 6.532,-1.005 7.931,-3.019 1.398,-2.012 2.098,-4.962 2.098,-8.851 0,-1.637 -0.206,-3.548 -0.614,-5.73 l -1.024,-9.21 c 0.341,0.75 0.938,1.892 1.791,3.429 0.853,1.534 2.32,3.767 4.4,6.702 2.081,2.932 4.316,5.594 6.703,7.981 2.387,2.388 5.339,4.502 8.851,6.344 3.514,1.843 7.078,2.764 10.694,2.764 4.571,0 8.118,-1.195 10.642,-3.581 2.525,-2.389 3.787,-5.391 3.787,-9.006 0,-2.798 -0.939,-5.27 -2.815,-7.419 -1.876,-2.149 -4.485,-3.224 -7.828,-3.224 -1.705,0 -3.035,0.137 -3.991,0.41 -1.842,4.775 -5.048,7.163 -9.619,7.163 -3.138,0 -5.986,-1.16 -8.544,-3.48 -2.559,-2.319 -4.605,-5.201 -6.14,-8.647 -1.535,-3.444 -2.831,-7.333 -3.889,-11.666 -1.057,-4.331 -1.79,-8.356 -2.2,-12.075 -0.41,-3.717 -0.614,-7.144 -0.614,-10.283 0,-24.696 0.682,-39.5 2.047,-44.412"
   inkscape:connector-curvature="0"
   id="path24"
   style="fill:#202222;fill-opacity:1;fill-rule:nonzero;stroke:none" /><path
   d="m 178.598,131.28 c 5.661,-9.857 12.756,-14.786 21.284,-14.786 7.027,0 12.98,3.683 17.857,11.052 4.878,7.367 7.317,16.884 7.317,28.551 0,13.779 -3.054,25.291 -9.159,34.536 -6.105,9.244 -13.49,13.865 -22.155,13.865 -3.206,0 -6.157,-0.784 -8.851,-2.353 -2.695,-1.57 -4.929,-3.617 -6.703,-6.141 -1.773,-2.524 -3.292,-5.406 -4.553,-8.647 -1.262,-3.24 -2.167,-6.531 -2.713,-9.875 -0.545,-3.342 -0.818,-6.65 -0.818,-9.925 0,-14.328 2.831,-26.418 8.494,-36.277 m -22.411,56.437 c 4.434,8.595 10.591,15.314 18.471,20.158 7.879,4.844 16.765,7.266 26.656,7.266 5.936,0 11.53,-1.092 16.783,-3.275 5.254,-2.183 9.961,-5.356 14.122,-9.516 4.161,-4.162 7.453,-9.654 9.875,-16.476 2.422,-6.822 3.633,-14.531 3.633,-23.127 0,-7.504 -1.28,-14.702 -3.838,-21.591 -2.558,-6.89 -6.055,-12.912 -10.489,-18.062 -4.434,-5.152 -9.892,-9.261 -16.373,-12.331 -6.481,-3.07 -13.439,-4.604 -20.875,-4.604 -5.935,0 -11.325,0.937 -16.169,2.814 -4.843,1.875 -8.766,4.212 -11.768,7.009 -3.001,2.797 -5.628,6.106 -7.879,9.926 -2.252,3.821 -3.923,7.385 -5.014,10.694 -1.092,3.308 -1.945,6.752 -2.559,10.336 -0.614,3.582 -0.972,6.172 -1.074,7.776 -0.103,1.603 -0.153,2.95 -0.153,4.043 0,10.71 2.216,20.363 6.651,28.96"
   inkscape:connector-curvature="0"
   id="path26"
   style="fill:#202222;fill-opacity:1;fill-rule:nonzero;stroke:none" /><path
   d="m 298.324,205.113 c -5.388,0 -9.67,-1.28 -12.842,-3.839 -3.171,-2.557 -4.758,-5.678 -4.758,-9.363 0,-2.66 0.785,-5.099 2.354,-7.315 1.568,-2.218 3.615,-4.112 6.139,-5.681 2.524,-1.569 5.407,-3.172 8.647,-4.81 3.24,-1.636 6.567,-3.154 9.978,-4.552 3.41,-1.4 6.736,-3.121 9.977,-5.169 3.241,-2.046 6.123,-4.195 8.647,-6.446 2.524,-2.252 4.57,-5.099 6.139,-8.545 1.57,-3.445 2.355,-7.214 2.355,-11.308 0,-9.414 -3.463,-17.089 -10.387,-23.023 -6.925,-5.936 -15.947,-8.903 -27.066,-8.903 -8.119,0 -15.47,2.165 -22.054,6.498 -6.583,4.331 -9.874,9.363 -9.874,15.093 0,2.523 0.716,4.98 2.149,7.368 0.818,-3.957 4.501,-7.743 11.051,-11.358 6.549,-3.616 12.861,-5.424 18.932,-5.424 3.548,0 6.754,0.443 9.619,1.331 2.865,0.887 5.321,2.489 7.367,4.809 2.047,2.319 3.071,5.253 3.071,8.799 0,2.456 -0.972,4.743 -2.916,6.858 -1.945,2.114 -4.469,4.023 -7.574,5.729 -3.103,1.706 -6.532,3.411 -10.284,5.117 -3.752,1.706 -7.504,3.599 -11.257,5.679 -3.752,2.081 -7.178,4.349 -10.284,6.806 -3.102,2.456 -5.628,5.474 -7.572,9.057 -1.944,3.581 -2.916,7.52 -2.916,11.819 0,8.458 3.377,15.708 10.131,21.745 6.754,6.036 15.042,9.056 24.867,9.056 5.048,0 9.618,-0.445 13.712,-1.33 4.093,-0.888 7.01,-1.74 8.748,-2.559 1.74,-0.819 3.839,-1.944 6.294,-3.377 0.547,-1.773 0.852,-3.94 0.922,-6.498 0.067,-2.558 -0.241,-5.254 -0.922,-8.085 -0.682,-2.829 -1.808,-5.03 -3.377,-6.6 l -3.786,0.819 c -1.433,4.434 -3.564,8.033 -6.396,10.797 -2.831,2.761 -5.595,4.587 -8.289,5.474 -2.694,0.887 -5.543,1.331 -8.545,1.331"
   inkscape:connector-curvature="0"
   id="path28"
   style="fill:#202222;fill-opacity:1;fill-rule:nonzero;stroke:none" /><path
   d="m 393.595,203.475 c -3.343,0 -6.277,-0.717 -8.801,-2.15 -2.523,-1.431 -4.621,-3.581 -6.293,-6.446 -1.671,-2.865 -3.054,-5.866 -4.145,-9.005 -1.091,-3.138 -2.149,-6.992 -3.172,-11.563 l 44.822,0.819 c 0,7.504 -1.944,14.104 -5.834,19.801 -3.889,5.696 -9.414,8.544 -16.577,8.544 m 40.829,-35.714 c -2.933,-1.637 -6.992,-2.456 -12.177,-2.456 l -50.449,0.615 c 0.138,-2.115 0.205,-4.913 0.205,-8.392 0,-11.052 2.849,-19.715 8.545,-25.992 5.696,-6.276 13.115,-9.415 22.256,-9.415 6.073,0 12.11,1.655 18.112,4.964 6.004,3.308 10.849,7.794 14.531,13.456 l 0.411,-1.739 c 0.272,-1.092 0.409,-2.183 0.409,-3.275 0,-5.184 -2.013,-10.079 -6.038,-14.684 -4.025,-4.605 -9.176,-8.203 -15.452,-10.797 -6.275,-2.591 -12.723,-3.887 -19.34,-3.887 -4.572,0 -8.903,0.596 -12.997,1.79 -4.092,1.195 -7.947,3.087 -11.562,5.68 -3.617,2.592 -6.754,5.798 -9.415,9.619 -2.66,3.819 -4.793,8.544 -6.397,14.172 -1.602,5.629 -2.471,11.853 -2.608,18.677 0,11.187 1.791,21.249 5.372,30.187 3.582,8.937 8.733,15.98 15.452,21.131 6.72,5.15 14.447,7.726 23.178,7.726 4.98,0 9.482,-0.631 13.508,-1.893 4.024,-1.263 7.333,-2.832 9.927,-4.708 2.59,-1.876 4.842,-4.195 6.753,-6.958 1.909,-2.763 3.343,-5.39 4.297,-7.88 0.955,-2.489 1.723,-5.235 2.302,-8.237 0.581,-3.002 0.923,-5.389 1.024,-7.163 0.103,-1.774 0.153,-3.651 0.153,-5.628 l 0,-4.913 z"
   inkscape:connector-curvature="0"
   id="path30"
   style="fill:#999999;fill-opacity:1;fill-rule:nonzero;stroke:none" /><path
   d="m 485.795,116.448 c 3.957,0 7.913,1.479 11.869,4.435 l 0,2.114 c 0,1.138 0.024,5.446 0.069,12.929 0.045,7.48 0.069,11.881 0.069,13.2 l 0,21.08 c -4.549,1.319 -9.21,1.979 -13.987,1.979 -2.955,0 -5.582,-0.683 -7.878,-2.047 -2.296,-1.365 -4.104,-3.081 -5.423,-5.152 -1.319,-2.068 -2.389,-4.478 -3.206,-7.23 -0.82,-2.752 -1.366,-5.321 -1.639,-7.709 -0.272,-2.388 -0.408,-4.787 -0.408,-7.197 0,-8.37 1.886,-14.862 5.662,-19.478 3.775,-4.615 8.732,-6.924 14.872,-6.924 m 36.293,-3.274 0,-2.456 c -1.683,-0.774 -2.888,-1.319 -3.615,-1.637 -0.729,-0.319 -1.98,-0.717 -3.753,-1.194 -1.774,-0.479 -3.455,-0.717 -5.048,-0.717 -1.045,0 -2.081,0.148 -3.104,0.443 -1.023,0.296 -2.07,0.774 -3.138,1.433 -1.069,0.659 -2.001,1.66 -2.797,3.002 -0.797,1.342 -1.33,2.944 -1.604,4.809 -6.912,-6.458 -13.802,-9.687 -20.67,-9.687 -3.411,0 -6.63,0.637 -9.654,1.911 -3.023,1.273 -5.787,3.183 -8.288,5.73 -2.502,2.547 -4.491,6.025 -5.97,10.438 -1.477,4.411 -2.217,9.482 -2.217,15.213 0,3.82 0.432,7.596 1.296,11.324 0.865,3.73 2.217,7.289 4.06,10.677 1.842,3.389 4.047,6.368 6.617,8.936 2.569,2.57 5.686,4.618 9.347,6.141 3.661,1.523 7.606,2.285 11.835,2.285 3.958,0 8.051,-0.637 12.279,-1.91 l -0.135,18.01 c 0,3.82 -0.581,6.8 -1.74,8.937 -1.16,2.138 -2.764,3.343 -4.81,3.616 l 0,2.523 1.365,0.888 c 0.909,0.545 2.308,1.114 4.195,1.706 1.888,0.592 3.832,0.886 5.833,0.886 3.411,0 5.743,-0.99 6.992,-2.967 1.251,-1.979 1.877,-5.219 1.877,-9.721 0,-2.094 -0.193,-6.743 -0.579,-13.952 -0.388,-7.209 -0.581,-14.2 -0.581,-20.978 0,-16.965 0.228,-30.335 0.683,-40.114 0.136,-2.818 0.501,-5.161 1.09,-7.025 0.592,-1.867 1.433,-3.253 2.526,-4.162 1.091,-0.911 2.217,-1.524 3.377,-1.842 1.159,-0.319 2.603,-0.501 4.331,-0.546"
   inkscape:connector-curvature="0"
   id="path32"
   style="fill:#999999;fill-opacity:1;fill-rule:nonzero;stroke:none" /><path
   d="m 536.482,123.816 0.273,18.897 c 0.137,6.959 0.092,12.246 -0.136,15.861 -0.227,3.616 -0.887,6.971 -1.977,10.063 -0.455,1.319 -1.115,2.399 -1.98,3.24 -0.864,0.843 -1.614,1.352 -2.251,1.536 l -0.956,0.272 0,2.388 c 1.365,0.91 3.162,1.717 5.391,2.421 2.228,0.706 4.298,1.058 6.208,1.058 3.002,0 5.128,-0.75 6.379,-2.25 1.25,-1.502 1.887,-3.776 1.909,-6.823 0.023,-3.047 0.012,-6.868 -0.034,-11.46 l -0.137,-21.764 c -0.091,-6.958 0.626,-11.859 2.15,-14.701 1.524,-2.843 4.446,-4.286 8.766,-4.332 7.595,0 14.008,3.069 19.238,9.21 0.274,11.461 0.409,20.784 0.409,27.969 0,3.048 -0.192,5.879 -0.58,8.495 -0.385,2.616 -0.784,4.4 -1.194,5.354 -0.681,1.456 -1.42,2.536 -2.216,3.242 -0.797,0.704 -1.785,1.193 -2.969,1.466 l 0,2.388 1.57,0.75 c 1.047,0.547 2.468,1.092 4.263,1.638 1.797,0.545 3.447,0.818 4.947,0.818 3.866,0 6.299,-0.841 7.299,-2.524 1.001,-1.683 1.502,-5.593 1.502,-11.734 l 0,-35.201 c 0,-1.684 0.079,-3.24 0.239,-4.673 0.158,-1.433 0.341,-2.673 0.545,-3.719 0.205,-1.046 0.512,-2.001 0.921,-2.864 0.409,-0.865 0.773,-1.569 1.091,-2.115 0.319,-0.546 0.773,-1.036 1.365,-1.468 0.591,-0.432 1.068,-0.75 1.432,-0.955 0.364,-0.204 0.876,-0.387 1.536,-0.545 0.66,-0.16 1.159,-0.262 1.5,-0.308 0.341,-0.045 0.841,-0.091 1.501,-0.136 0.66,-0.045 1.103,-0.091 1.33,-0.136 l 0,-2.456 c -0.91,-0.637 -2.671,-1.388 -5.287,-2.252 -2.615,-0.863 -5.014,-1.296 -7.197,-1.296 -1.773,0 -3.332,0.318 -4.674,0.955 -1.34,0.637 -2.421,1.444 -3.24,2.422 -0.817,0.977 -1.489,2.182 -2.012,3.615 -0.522,1.433 -0.886,2.832 -1.092,4.196 -0.204,1.366 -0.353,2.866 -0.443,4.502 -1.183,-1.91 -2.57,-3.728 -4.161,-5.458 -1.593,-1.727 -3.48,-3.387 -5.663,-4.979 -2.183,-1.591 -4.741,-2.865 -7.674,-3.82 -2.935,-0.955 -6.038,-1.433 -9.313,-1.433 -4.73,0 -8.652,1.671 -11.768,5.015 -3.115,3.342 -4.719,7.219 -4.81,11.631"
   inkscape:connector-curvature="0"
   id="path34"
   style="fill:#999999;fill-opacity:1;fill-rule:nonzero;stroke:none" /><text
   transform="matrix(1,0,0,-1,69,77.8242)"
   id="text36"><tspan
     x="0 14.58 34.487999 66.528 84.456001 105.588 115.668 133.59599 154.728 165.888 185.79601 206.10001 223.812 244.944 256.104 271.07999 290.98801 312.15601 326.73599 343.728 361.44 372.60001 390.31201 410.328 431.496 448.48801 466.41599 479.98801 490.06799 509.97601"
     y="0"
     id="tspan38"
     style="font-size:36px;font-variant:normal;font-weight:normal;font-stretch:normal;writing-mode:lr-tb;fill:#202222;fill-opacity:1;fill-rule:nonzero;stroke:none;font-family:Fontin;-inkscape-font-specification:Fontin-Regular">romanian open source education</tspan></text>

</g></g></g></svg>