<?xml version="1.0" encoding="utf-8"?>
<!-- Generator: Adobe Illustrator 16.0.0, SVG Export Plug-In . SVG Version: 6.00 Build 0)  -->
<!DOCTYPE svg PUBLIC "-//W3C//DTD SVG 1.1//EN" "http://www.w3.org/Graphics/SVG/1.1/DTD/svg11.dtd">
<svg version="1.1" id="Layer_1" xmlns="http://www.w3.org/2000/svg" xmlns:xlink="http://www.w3.org/1999/xlink" x="0px" y="0px"
	 width="1920px" height="1080px" viewBox="0 0 1920 1080" enable-background="new 0 0 1920 1080" xml:space="preserve">
<g>
	<path fill-rule="evenodd" clip-rule="evenodd" d="M421.591,451.513c12.515-1.983,24.089-4.014,35.726-5.581
		c6.309-0.852,9.028,3.797,10.528,8.83c4.113,13.81,8.109,27.66,11.806,41.587c6.724,25.332,13.193,50.732,19.783,76.101
		c0.258,0.988,0.667,1.939,1.595,4.596c3.608-13.396,6.81-25.178,9.954-36.975c5.905-22.161,11.952-44.286,17.554-66.523
		c1.661-6.591,2.028-13.506,3.336-22.724c8.069-1.411,18.207-3.457,28.432-4.858c5.099-0.698,6.541,3.917,7.589,7.614
		c3.688,13.022,7.185,26.105,10.49,39.232c7.244,28.773,14.326,57.587,22.663,86.6c12.37-44.271,24.74-88.543,37.447-134.026
		c8.734,0.727,17.641,1.138,26.442,2.339c4.407,0.6,6.839,3.95,5.839,8.688c-0.901,4.263-1.942,8.527-3.328,12.654
		c-16.971,50.517-34.136,100.97-50.932,151.543c-3,9.034-8.628,13.085-17.768,13.405c-4.59,0.163-9.197,0.576-13.736,1.272
		c-5.282,0.807-7.572-1.071-8.847-6.428c-8.706-36.548-17.757-73.013-26.711-109.503c-0.546-2.221-1.209-4.412-2.953-6.751
		c-3.396,12.324-6.732,24.664-10.199,36.967c-6.517,23.125-13.335,46.168-19.556,69.37c-2.502,9.332-7.924,13.806-17.35,14.978
		c-19.566,2.43-19.506,2.629-25.34-16.372c-14.678-47.806-29.339-95.616-44.138-143.385
		C427.722,467.082,424.814,460.221,421.591,451.513z"/>
	<path fill-rule="evenodd" clip-rule="evenodd" d="M1006.154,629.81c0-6.038,0-11.496,0-16.955c0-51.518,0.066-103.034-0.108-154.55
		c-0.016-4.922,1.272-6.702,6.341-7.418c26.507-3.741,52.998-6.977,79.811-3.736c40.78,4.929,71.623,25.623,78.907,68.228
		c6.706,39.225-1.253,74.264-34.818,99.649c-17.667,13.362-38.438,18.763-60.153,19.985
		C1052.88,636.322,1029.764,634.135,1006.154,629.81z M1049.013,607.203c3.076,0.574,5.822,1.414,8.604,1.536
		c5.465,0.242,10.969,0.397,16.422,0.045c23.838-1.542,41.745-15.298,49.359-37.828c5.504-16.285,6.399-32.965,3.777-49.877
		c-6.764-43.631-48.017-54.252-78.162-46.749C1049.013,518.505,1049.013,562.692,1049.013,607.203z"/>
	<path fill-rule="evenodd" clip-rule="evenodd" d="M939.631,532.03c1.408,0.583,4.249,1.631,6.979,2.913
		c29.814,13.99,37.432,49.439,16.153,74.812c-12.441,14.836-29.34,20.979-47.605,23.875c-24.309,3.852-48.458,0.697-72.526-2.964
		c-0.621-0.095-1.193-0.525-2.459-1.113c0-58.833,0-117.949,0-178.176c8.234-1.14,16.984-2.583,25.787-3.525
		c21.385-2.292,42.774-3.811,63.926,1.951c28.417,7.74,42.776,35.299,29.689,59.236C954.843,517.69,946.455,524.344,939.631,532.03z
		 M881.093,548.946c0,20.509-0.08,38.91,0.165,57.309c0.017,1.373,2.364,3.889,3.615,3.881c7.396-0.057,14.993,0.223,22.139-1.346
		c13.182-2.894,21.208-14.646,21.479-29.443c0.256-13.898-6.18-23.591-19.971-27.163
		C900.038,549.984,890.976,550.026,881.093,548.946z M881.116,525.184c8.732,0,16.781-0.337,24.788,0.103
		c6.917,0.378,11.349-2.913,14.163-8.502c1.927-3.834,3.362-8.094,4.09-12.323c2.792-16.235-4.932-29.604-19.618-32.777
		c-6.474-1.398-13.441-0.671-20.177-0.532c-1.104,0.022-3.095,1.985-3.108,3.069C881.056,491.424,881.116,508.63,881.116,525.184z"
		/>
	<path fill-rule="evenodd" clip-rule="evenodd" d="M1422.354,583.798c15.499-44.598,30.738-88.083,45.608-131.695
		c1.835-5.376,4.182-7.474,9.763-6.532c5.384,0.91,10.914,0.946,16.294,1.88c11.435,1.985,13.06,4.687,9.076,15.511
		c-5.43,14.759-10.945,29.5-16.86,44.07c-15.123,37.248-30.734,74.301-45.594,111.651c-4.111,10.329-10.418,15.526-21.499,15.56
		c-6.307,0.018-12.613,0.885-18.373,1.326c-23.854-61.402-47.408-122.052-71.421-183.874c12.031-1.883,24.656-3.931,37.309-5.804
		c5.927-0.877,8.126,3.542,9.771,7.898c5.62,14.919,11.189,29.862,16.453,44.91c9.301,26.591,18.365,53.264,27.534,79.901
		C1420.899,580.009,1421.454,581.393,1422.354,583.798z"/>
	<path fill-rule="evenodd" clip-rule="evenodd" d="M739.729,523.472c20.923,0,41.278,0,62.128,0
		c-0.559,3.419-0.848,6.407-1.55,9.296c-3.613,14.86-8.037,18.289-23.254,18.303c-11.839,0.008-23.679,0.036-35.52,0.077
		c-0.415,0.002-0.83,0.234-1.691,0.497c0,17.48,0,35.092,0,53.721c24.472,0,48.475,0,72.453,0
		c1.014,14.838-10.842,28.661-25.041,28.424c-27.367-0.457-54.727-1.448-82.087-2.344c-5.614-0.185-8.177-4.146-8.189-9.121
		c-0.13-56.339-0.083-112.68-0.083-169.971c35.666-7.032,71.57-2.439,107.797-4.156c-0.184,9.44-2.632,17.376-7.908,24.257
		c-1.119,1.46-3.696,2.426-5.653,2.517c-11.589,0.541-23.192,0.805-34.793,1.063c-5.419,0.12-10.843,0.02-16.608,0.02
		C739.729,492.014,739.729,507.267,739.729,523.472z"/>
	<path fill-rule="evenodd" clip-rule="evenodd" d="M1245.279,523.51c20.79,0,41.148,0,61.872,0
		c-0.372,2.562-0.563,4.693-1.001,6.772c-3.96,18.825-10.092,21.393-24.497,20.873c-12.013-0.433-24.052-0.089-36.443-0.089
		c0,18.132,0,35.741,0,54.335c24.505,0,48.518,0,72.515,0c0.71,15.367-11.073,28.535-25.871,28.431
		c-24.544-0.173-49.088-0.768-73.632-1.283c-2.823-0.059-5.678-0.544-8.439-1.18c-5.097-1.171-7.563-4.497-7.56-9.788
		c0.031-55.476,0.023-110.952,0.039-166.428c0-0.646,0.144-1.292,0.329-2.882c35.373-6.917,71.282-2.379,107.566-4.071
		c-0.396,9.461-2.742,17.453-8.079,24.322c-1.129,1.453-3.72,2.383-5.687,2.467c-12.248,0.527-24.509,0.778-36.769,1.049
		c-4.589,0.102-9.185,0.016-14.344,0.016C1245.279,491.787,1245.279,507.185,1245.279,523.51z"/>
	<path fill-rule="evenodd" clip-rule="evenodd" d="M389.073,457.458c-1.396,3.788-2.52,8.279-4.611,12.262
		c-10.981,20.924-22.036,41.815-33.458,62.5c-3.233,5.857-3.225,10.644-0.044,16.532c11.847,21.945,23.268,44.122,34.775,66.249
		c3.277,6.304,4.389,12.847,0.972,19.516c-2.975,5.809-7.173,6.268-11.089,1.139c-19.402-25.413-38.83-50.807-58.095-76.324
		c-7.288-9.653-7.197-24.988,0.379-35.113c19.151-25.599,38.522-51.034,57.88-76.479c3.88-5.1,8.259-4.538,10.94,1.367
		C387.786,451.447,388.157,454.103,389.073,457.458z"/>
	<path fill-rule="evenodd" clip-rule="evenodd" d="M1610.941,542.37c-2.728,6.266-4.345,12.57-7.831,17.566
		c-17.559,25.128-35.567,49.943-53.568,74.759c-1.261,1.739-4.045,3.927-5.554,3.561c-2.083-0.506-5.02-3.147-5.14-5.036
		c-0.368-5.673-1.171-12.178,1.078-17.016c9.965-21.408,20.6-42.525,31.72-63.361c4.08-7.653,3.898-13.643-0.136-21.292
		c-11.124-21.081-21.313-42.657-31.809-64.067c-3.142-6.409-3.797-13.057-0.52-19.593c2.672-5.325,6.586-5.686,10.042-0.923
		c18.521,25.523,37.191,50.943,55.188,76.83C1607.935,528.861,1608.73,535.82,1610.941,542.37z"/>
</g>
</svg>
